<svg width="12.000000" height="8.000000" viewBox="0 0 12 8" fill="none" xmlns="http://www.w3.org/2000/svg" xmlns:xlink="http://www.w3.org/1999/xlink">
                    <defs/>
                    <path id="Vector" d="M5.3335 8C5.14453 8 4.98633 7.93604 4.85889 7.80811C4.73047 7.68066 4.6665 7.52246 4.6665 7.3335C4.6665 7.14453 4.73047 6.98633 4.85889 6.85889C4.98633 6.73047 5.14453 6.6665 5.3335 6.6665L6.6665 6.6665C6.85547 6.6665 7.01416 6.73047 7.14209 6.85889C7.26953 6.98633 7.3335 7.14453 7.3335 7.3335C7.3335 7.52246 7.26953 7.68066 7.14209 7.80811C7.01416 7.93604 6.85547 8 6.6665 8L5.3335 8ZM0.666504 1.3335C0.477539 1.3335 0.319336 1.26953 0.191895 1.14209C0.0639648 1.01416 0 0.855469 0 0.666504C0 0.477539 0.0639648 0.319336 0.191895 0.191406C0.319336 0.0639648 0.477539 0 0.666504 0L11.3335 0C11.5225 0 11.6807 0.0639648 11.8081 0.191406C11.936 0.319336 12 0.477539 12 0.666504C12 0.855469 11.936 1.01416 11.8081 1.14209C11.6807 1.26953 11.5225 1.3335 11.3335 1.3335L0.666504 1.3335ZM2.6665 4.6665C2.47754 4.6665 2.31934 4.60254 2.19141 4.47461C2.06396 4.34717 2 4.18896 2 4C2 3.81104 2.06396 3.65283 2.19141 3.5249C2.31934 3.39697 2.47754 3.3335 2.6665 3.3335L9.3335 3.3335C9.52246 3.3335 9.68066 3.39697 9.80811 3.5249C9.93604 3.65283 10 3.81104 10 4C10 4.18896 9.93604 4.34717 9.80811 4.47461C9.68066 4.60254 9.52246 4.6665 9.3335 4.6665L2.6665 4.6665Z" fill="#000000" fill-opacity="1.000000" fill-rule="nonzero"/>
                </svg>