        <svg width="24.000000" height="18.000000" viewBox="0 0 16 12" fill="none" xmlns="http://www.w3.org/2000/svg" xmlns:xlink="http://www.w3.org/1999/xlink">
            <defs/>
            <path id="Vector" d="M0 0.75C0 0.55127 0.0791016 0.360352 0.219727 0.219727C0.360352 0.0791016 0.550781 0 0.75 0L15.25 0C15.4492 0 15.6396 0.0791016 15.7803 0.219727C15.9209 0.360352 16 0.55127 16 0.75C16 0.94873 15.9209 1.13965 15.7803 1.28027C15.6396 1.4209 15.4492 1.5 15.25 1.5L0.75 1.5C0.550781 1.5 0.360352 1.4209 0.219727 1.28027C0.0791016 1.13965 0 0.94873 0 0.75ZM0 6C0 5.80127 0.0791016 5.61035 0.219727 5.46973C0.360352 5.3291 0.550781 5.25 0.75 5.25L15.25 5.25C15.4492 5.25 15.6396 5.3291 15.7803 5.46973C15.9209 5.61035 16 5.80127 16 6C16 6.19873 15.9209 6.38965 15.7803 6.53027C15.6396 6.6709 15.4492 6.75 15.25 6.75L0.75 6.75C0.550781 6.75 0.360352 6.6709 0.219727 6.53027C0.0791016 6.38965 0 6.19873 0 6ZM0 11.25C0 11.0513 0.0791016 10.8604 0.219727 10.7197C0.360352 10.5791 0.550781 10.5 0.75 10.5L15.25 10.5C15.4492 10.5 15.6396 10.5791 15.7803 10.7197C15.9209 10.8604 16 11.0513 16 11.25C16 11.4487 15.9209 11.6396 15.7803 11.7803C15.6396 11.9209 15.4492 12 15.25 12L0.75 12C0.550781 12 0.360352 11.9209 0.219727 11.7803C0.0791016 11.6396 0 11.4487 0 11.25Z" fill="#000000" fill-opacity="1.000000" fill-rule="evenodd"/>
        </svg>